# xmcd
# 
# Track frame offsets:
#     150
#     10840
#     24832
#     35212
#     47647
#     59032
#     69892
#     80365
#     89755
#     101415
#     111262
#     124237
#     136132
#     145167
#     156867
#     168665
#     179665
#     189802
#     200270
#     211497
# 
# Disc length: 2959
# 
# Revision: 2
# Processed by: cddbd v1.5.2PL0 Copyright (c) Steve Scherf et al.
# Submitted via: fre:ac v1.0.31
# 
DISCID=1b0b8d14
DTITLE=Jim Reeves - Legendary Favorites Jim Reeves [CD2]
DYEAR=1997
DGENRE=Country
TTITLE0=He'll Have To Go
TTITLE1=Whispering Hope
TTITLE2=Losing Your Love
TTITLE3=A Fallen Star
TTITLE4=Adios Amigos
TTITLE5=Take My Hand, Precious Lord
TTITLE6=Am I Losing You
TTITLE7=What Would You Do
TTITLE8=You Belong To Me
TTITLE9=When Two Worlds Collide
TTITLE10=Four Walls
TTITLE11=In The Misty Moonlight
TTITLE12=Home
TTITLE13=I'll Fly Away
TTITLE14=I Missed Me
TTITLE15=Make The World Go Away
TTITLE16=Partners
TTITLE17=In The Garden
TTITLE18=How Can I Write On Paper (What I Feel In My Heart)
TTITLE19=Am I That Easy To Forget
EXTD=Not on allmusic.com.
EXTT0=
EXTT1=
EXTT2=
EXTT3=
EXTT4=
EXTT5=
EXTT6=
EXTT7=
EXTT8=
EXTT9=
EXTT10=
EXTT11=
EXTT12=
EXTT13=
EXTT14=
EXTT15=
EXTT16=
EXTT17=
EXTT18=
EXTT19=
PLAYORDER=
